<svg width="28px" height="27px" viewBox="0 0 28 27" fill="none" xmlns="http://www.w3.org/2000/svg" transform="rotate(0) scale(1, 1)">
<path d="M13.0381 1.13666C13.4031 0.287779 14.5969 0.287781 14.9619 1.13666L18.0243 8.25875C18.1762 8.61205 18.5066 8.85411 18.8867 8.89064L26.5496 9.62702C27.463 9.71479 27.8319 10.8597 27.1441 11.4721L21.3739 16.6102C21.0876 16.8651 20.9614 17.2567 21.0445 17.6326L22.718 25.2098C22.9174 26.1129 21.9517 26.8205 21.1616 26.3501L14.533 22.4035C14.2042 22.2078 13.7958 22.2078 13.467 22.4035L6.83836 26.3501C6.04829 26.8205 5.08256 26.1129 5.28203 25.2098L6.95555 17.6326C7.03856 17.2567 6.91237 16.8651 6.62613 16.6102L0.855889 11.4721C0.168134 10.8597 0.537015 9.71479 1.45036 9.62702L9.11329 8.89064C9.49341 8.85411 9.82379 8.61204 9.9757 8.25875L13.0381 1.13666Z" fill="#ffffff"/>
</svg>